<svg width="46" height="46" viewBox="0 0 46 46" fill="none" xmlns="http://www.w3.org/2000/svg">
<path opacity="0.3" fill-rule="evenodd" clip-rule="evenodd" d="M0.199951 23.18V28.5C0.199951 38.1539 8.02602 45.98 17.68 45.98H23H28.32C37.9739 45.98 45.7999 38.1539 45.7999 28.5V23.18V17.86C45.7999 8.20607 37.9739 0.380005 28.3199 0.380005H23H17.68C8.02601 0.380005 0.199951 8.20608 0.199951 17.86V23.18Z" fill="#6688FF"/>
<path fill-rule="evenodd" clip-rule="evenodd" d="M30.9916 13.8144H30.2658C30.2174 13.8112 30.1687 13.8184 30.1233 13.8355C30.0778 13.8526 30.0365 13.8792 30.0021 13.9136C29.9678 13.9479 29.9411 13.9892 29.924 14.0347C29.9069 14.0802 29.8997 14.1288 29.903 14.1773V15.6288C29.903 16.3944 29.6006 17.1289 29.0617 17.6726C28.5227 18.2164 27.7908 18.5252 27.0253 18.5319H19.1254C18.3599 18.5252 17.628 18.2164 17.0891 17.6726C16.5501 17.1289 16.2477 16.3944 16.2478 15.6288V14.1773C16.251 14.1288 16.2438 14.0802 16.2267 14.0347C16.2096 13.9892 16.183 13.9479 16.1486 13.9136C16.1143 13.8792 16.073 13.8526 16.0275 13.8355C15.982 13.8184 15.9334 13.8112 15.8849 13.8144H15.1591C14.5848 13.8192 14.0357 14.0507 13.6313 14.4585C13.2269 14.8663 13 15.4174 13 15.9917V31.5955C13 32.1699 13.2269 32.7209 13.6313 33.1287C14.0357 33.5365 14.5848 33.768 15.1591 33.7728H30.9916C31.5659 33.768 32.115 33.5365 32.5194 33.1287C32.9238 32.7209 33.1507 32.1699 33.1507 31.5955V15.9917C33.1507 15.4174 32.9238 14.8663 32.5194 14.4585C32.115 14.0507 31.5659 13.8192 30.9916 13.8144ZM20.5624 28.6925C20.5624 28.885 20.486 29.0696 20.3498 29.2057C20.2137 29.3418 20.0291 29.4183 19.8367 29.4183H19.1109C18.9184 29.4183 18.7338 29.3418 18.5977 29.2057C18.4616 29.0696 18.3851 28.885 18.3851 28.6925V25.0637C18.3851 24.8712 18.4616 24.6866 18.5977 24.5505C18.7338 24.4144 18.9184 24.3379 19.1109 24.3379H19.8367C20.0291 24.3379 20.2137 24.4144 20.3498 24.5505C20.486 24.6866 20.5624 24.8712 20.5624 25.0637V28.6925ZM24.1694 28.6925C24.1694 28.885 24.093 29.0696 23.9569 29.2057C23.8208 29.3418 23.6362 29.4183 23.4437 29.4183H22.7179C22.5254 29.4183 22.3408 29.3418 22.2047 29.2057C22.0686 29.0696 21.9922 28.885 21.9922 28.6925V21.7978C21.9922 21.6053 22.0686 21.4207 22.2047 21.2846C22.3408 21.1485 22.5254 21.072 22.7179 21.072H23.4437C23.6362 21.072 23.8208 21.1485 23.9569 21.2846C24.093 21.4207 24.1694 21.6053 24.1694 21.7978V28.6925ZM27.7656 28.6925C27.7656 28.885 27.6891 29.0696 27.553 29.2057C27.4169 29.3418 27.2323 29.4183 27.0398 29.4183H26.3141C26.1216 29.4183 25.937 29.3418 25.8009 29.2057C25.6648 29.0696 25.5883 28.885 25.5883 28.6925V23.2493C25.5883 23.0568 25.6648 22.8722 25.8009 22.7361C25.937 22.6 26.1216 22.5235 26.3141 22.5235H27.0398C27.2323 22.5235 27.4169 22.6 27.553 22.7361C27.6891 22.8722 27.7656 23.0568 27.7656 23.2493V28.6925Z" fill="#448ACB"/>
<path fill-rule="evenodd" clip-rule="evenodd" d="M19.1255 16.3546H27.0362C27.2287 16.3546 27.4133 16.2781 27.5494 16.142C27.6855 16.0059 27.762 15.8213 27.762 15.6288V14.1773C27.762 13.603 27.5351 13.0519 27.1307 12.6441C26.7263 12.2363 26.1772 12.0048 25.6029 12H20.5625C19.9882 12.0048 19.439 12.2363 19.0346 12.6441C18.6302 13.0519 18.4033 13.603 18.4033 14.1773V15.6288C18.4033 15.8207 18.4793 16.0047 18.6146 16.1407C18.7499 16.2767 18.9336 16.3536 19.1255 16.3546Z" fill="#448ACB"/>
</svg>
