<svg width="47" height="46" viewBox="0 0 47 46" fill="none" xmlns="http://www.w3.org/2000/svg">
<path opacity="0.3" fill-rule="evenodd" clip-rule="evenodd" d="M0.900024 23.18V28.5C0.900024 38.1539 8.72609 45.98 18.38 45.98H23.7H29.02C38.674 45.98 46.5 38.1539 46.5 28.5V23.18V17.86C46.5 8.20607 38.674 0.380005 29.02 0.380005H23.7H18.38C8.72609 0.380005 0.900024 8.20608 0.900024 17.86V23.18Z" fill="#FF9066"/>
<path fill-rule="evenodd" clip-rule="evenodd" d="M22.0104 28.4664L17.2322 23.6882L18.3188 22.6016L22.0104 26.2932L29.0894 19.2127L30.176 20.3008L22.0104 28.4664V28.4664ZM23.4489 10.5353C16.2455 10.5353 10.3853 16.3956 10.3853 23.599C10.3853 30.8025 16.2455 36.6627 23.4489 36.6627C30.6509 36.6627 36.5126 30.8025 36.5126 23.599C36.5126 16.3956 30.6509 10.5353 23.4489 10.5353Z" fill="#FF9066"/>
</svg>
