<svg width="22" height="17" viewBox="0 0 22 17" fill="none" xmlns="http://www.w3.org/2000/svg">
<path d="M15 7.28599C16.66 7.28599 17.99 5.65885 17.99 3.64313C17.99 1.62742 16.66 0.000274658 15 0.000274658C13.34 0.000274658 12 1.62742 12 3.64313C12 5.65885 13.34 7.28599 15 7.28599ZM7 7.28599C8.66 7.28599 9.99 5.65885 9.99 3.64313C9.99 1.62742 8.66 0.000274658 7 0.000274658C5.34 0.000274658 4 1.62742 4 3.64313C4 5.65885 5.34 7.28599 7 7.28599ZM7 9.71456C4.67 9.71456 0 11.1353 0 13.9646V17.0003H14V13.9646C14 11.1353 9.33 9.71456 7 9.71456ZM15 9.71456C14.71 9.71456 14.38 9.73885 14.03 9.77528C15.19 10.7953 16 12.1674 16 13.9646V17.0003H22V13.9646C22 11.1353 17.33 9.71456 15 9.71456Z" fill="#737791"/>
</svg>
