<svg width="46" height="46" viewBox="0 0 46 46" fill="none" xmlns="http://www.w3.org/2000/svg">
<path opacity="0.21" fill-rule="evenodd" clip-rule="evenodd" d="M0.300049 23.18V28.5C0.300049 38.1539 8.12612 45.98 17.7801 45.98H23.1H28.42C38.074 45.98 45.9 38.1539 45.9 28.5V23.18V17.86C45.9 8.20607 38.074 0.380005 28.42 0.380005H23.1H17.78C8.12611 0.380005 0.300049 8.20608 0.300049 17.86V23.18Z" fill="#FEC53D"/>
<path d="M35.9782 23.3702C35.9782 30.3846 30.2919 36.071 23.2774 36.071C16.263 36.071 10.5766 30.3846 10.5766 23.3702C10.5766 16.3557 16.263 10.6694 23.2774 10.6694C30.2919 10.6694 35.9782 16.3557 35.9782 23.3702Z" fill="#FAD465" stroke="#F3C643" stroke-width="1.3608"/>
<path d="M23.2775 17.1256V24.2622H26.8458" stroke="white" stroke-width="2.7216" stroke-linecap="round" stroke-linejoin="round"/>
</svg>
