<svg width="47" height="46" viewBox="0 0 47 46" fill="none" xmlns="http://www.w3.org/2000/svg">
<path opacity="0.21" fill-rule="evenodd" clip-rule="evenodd" d="M0.599976 23.18V28.5C0.599976 38.1539 8.42605 45.98 18.08 45.98H23.4H28.72C38.3739 45.98 46.2 38.1539 46.2 28.5V23.18V17.86C46.2 8.20607 38.3739 0.380005 28.72 0.380005H23.4H18.08C8.42604 0.380005 0.599976 8.20608 0.599976 17.86V23.18Z" fill="#4AD991"/>
<path fill-rule="evenodd" clip-rule="evenodd" d="M25.0891 23.7461L31.4195 17.4157C31.7592 17.076 32.3405 17.3068 32.3546 17.7869L32.396 19.2739C32.4134 19.8749 32.9142 20.331 33.5151 20.331H33.2735C33.8744 20.331 34.0899 19.8128 34.0899 19.2119V14.8878C34.0899 13.6903 33.1102 12.7105 31.9127 12.7105H28.0839C27.4819 12.7105 26.4695 13.1732 26.4695 13.7741V13.7774C26.4695 14.3783 27.1738 14.8813 27.7747 14.8976L29.4447 14.9422C29.9248 14.9542 30.1567 15.5355 29.8181 15.8752L23.5182 22.2068C23.0936 22.6313 23.1088 23.3205 23.5345 23.7461C23.9591 24.1707 24.6634 24.1718 25.0891 23.7461ZM34.0899 26.8748V32.3224C34.0899 33.5221 33.6 34.4833 32.4004 34.4833H14.9734C13.7737 34.4833 12.3171 33.5221 12.3171 32.3224V14.8955C12.3171 13.6947 13.7737 12.7105 14.9734 12.7105H20.421C21.0219 12.7105 21.5096 13.1983 21.5096 13.7992C21.5096 14.4012 21.0219 14.8878 20.421 14.8878H16.0664C15.4655 14.8878 14.4944 15.3864 14.4944 15.9884V30.1451C14.4944 31.3448 15.951 32.3061 17.1507 32.3061H31.3074C31.9083 32.3061 31.9127 31.8303 31.9127 31.2294V26.8748C31.9127 26.2728 32.3993 25.7862 33.0013 25.7862C33.6022 25.7862 34.0899 26.2728 34.0899 26.8748Z" fill="#4AD991"/>
</svg>
