<svg width="46" height="45" viewBox="0 0 46 45" fill="none" xmlns="http://www.w3.org/2000/svg">
<rect x="0.399994" y="3.05176e-05" width="44.8" height="44.8" rx="6.4" fill="#5D5FEF"/>
<path d="M18.2994 14.1019C17.3937 15.0244 17.3937 16.5171 18.3161 17.4395L20.3287 19.4521C22.224 21.3474 22.224 24.4334 20.3287 26.3286L16.6389 22.6388C15.6913 21.6912 15.2133 20.4417 15.2133 19.2006C15.2133 17.9594 15.6913 16.7099 16.6389 15.7623L18.2742 14.1271C18.2826 14.1187 18.291 14.1103 18.2994 14.1019Z" fill="#5D5FEF" stroke="white" stroke-width="1.6" stroke-miterlimit="10"/>
<path d="M19.9094 19.032L18.316 17.4386C17.3936 16.5162 17.3852 15.0319 18.2993 14.101C19.2049 13.2121 20.6473 13.2289 21.5446 14.1262C21.9975 14.579 22.2239 15.1744 22.2239 15.7614C22.2239 16.3485 21.9975 16.9439 21.5446 17.3967L21.1673 17.7741" fill="#5D5FEF"/>
<path d="M19.9094 19.032L18.316 17.4386C17.3936 16.5162 17.3852 15.0319 18.2993 14.101C19.2049 13.2121 20.6473 13.2289 21.5446 14.1262C21.9975 14.579 22.2239 15.1744 22.2239 15.7614C22.2239 16.3485 21.9975 16.9439 21.5446 17.3967L21.1673 17.7741" stroke="white" stroke-width="1.6" stroke-miterlimit="10"/>
<path d="M27.8171 30.5797C28.7228 29.6572 28.7228 28.1645 27.8003 27.2421L25.7877 25.2294C23.8925 23.3342 23.8925 20.2482 25.7877 18.353L29.4775 22.0428C30.4251 22.9904 30.9031 24.2399 30.9031 25.481C30.9031 26.7221 30.4251 27.9716 29.4775 28.9193L27.8423 30.5545C27.8255 30.5713 27.8171 30.5797 27.8171 30.5797Z" fill="#5D5FEF" stroke="white" stroke-width="1.6" stroke-miterlimit="10"/>
<path d="M26.1983 25.6571L27.7916 27.2504C28.7141 28.1729 28.7224 29.6572 27.8084 30.588C26.9027 31.4769 25.4603 31.4602 24.563 30.5629C24.1102 30.11 23.8838 29.5146 23.8838 28.9276C23.8838 28.3406 24.1102 27.7452 24.563 27.2924L24.9488 26.9066" fill="#5D5FEF"/>
<path d="M26.1983 25.6571L27.7916 27.2504C28.7141 28.1729 28.7224 29.6572 27.8084 30.588C26.9027 31.4769 25.4603 31.4602 24.563 30.5629C24.1102 30.11 23.8838 29.5146 23.8838 28.9276C23.8838 28.3406 24.1102 27.7452 24.563 27.2924L24.9488 26.9066" stroke="white" stroke-width="1.6" stroke-miterlimit="10"/>
</svg>
