<svg width="20" height="15" viewBox="0 0 20 15" fill="none" xmlns="http://www.w3.org/2000/svg">
<path d="M19.8207 6.93C19.7377 6.811 17.7587 3.986 15.0277 2.055C13.6117 1.052 11.8257 0.5 9.9997 0.5C8.1737 0.5 6.3887 1.052 4.9697 2.055C2.2387 3.986 0.261702 6.811 0.178702 6.93C0.0623546 7.0975 0 7.29656 0 7.5005C0 7.70444 0.0623546 7.9035 0.178702 8.071C0.261702 8.19 2.2387 11.015 4.9697 12.946C6.3887 13.948 8.1747 14.5 9.9997 14.5C11.8247 14.5 13.6117 13.948 15.0277 12.945C17.7587 11.014 19.7377 8.189 19.8207 8.07C19.9368 7.9026 19.9991 7.70373 19.9991 7.5C19.9991 7.29627 19.9368 7.0974 19.8207 6.93ZM9.9997 11C8.0657 11 6.4997 9.43 6.4997 7.5C6.4997 5.566 8.0657 4 9.9997 4C11.9297 4 13.4997 5.566 13.4997 7.5C13.4997 9.43 11.9297 11 9.9997 11ZM11.9997 7.5C11.9997 8.602 11.1017 9.5 9.9997 9.5C9.60414 9.5 9.21746 9.3827 8.88856 9.16294C8.55966 8.94318 8.30332 8.63082 8.15194 8.26537C8.00057 7.89991 7.96096 7.49778 8.03813 7.10982C8.1153 6.72186 8.30578 6.36549 8.58549 6.08579C8.86519 5.80608 9.22156 5.6156 9.60952 5.53843C9.99748 5.46126 10.3996 5.50087 10.7651 5.65224C11.1305 5.80362 11.4429 6.05996 11.6626 6.38886C11.8824 6.71776 11.9997 7.10444 11.9997 7.5Z" fill="#3E3E3E"/>
</svg>
