<svg width="26" height="27" viewBox="0 0 26 27" fill="none" xmlns="http://www.w3.org/2000/svg">
<mask id="mask0_29_358" style="mask-type:luminance" maskUnits="userSpaceOnUse" x="0" y="0" width="26" height="27">
<rect y="0.800018" width="25.6" height="25.6" fill="white"/>
</mask>
<g mask="url(#mask0_29_358)">
<path d="M10.9363 7.07666L11.2332 11.4926L11.3807 13.7121C11.3823 13.9404 11.418 14.1672 11.487 14.3851C11.665 14.8081 12.0934 15.0769 12.5594 15.0582L19.6604 14.5936C19.968 14.5886 20.2649 14.7036 20.4859 14.9134C20.6702 15.0882 20.7891 15.3169 20.8266 15.5629L20.8392 15.7122C20.5454 19.7813 17.5569 23.1752 13.4963 24.0512C9.43565 24.9273 5.27171 23.0766 3.26515 19.5039C2.68668 18.466 2.32535 17.3252 2.2024 16.1483C2.15104 15.7999 2.12842 15.448 2.13477 15.096C2.12842 10.7336 5.23503 6.96212 9.58368 6.05291C10.1071 5.9714 10.6202 6.24848 10.83 6.72593C10.8843 6.8365 10.9202 6.95492 10.9363 7.07666Z" fill="white"/>
<path opacity="0.4" d="M23.4668 11.2664L23.4594 11.3012L23.4378 11.3517L23.4408 11.4905C23.4297 11.6743 23.3587 11.8512 23.2364 11.9941C23.109 12.1429 22.9349 12.2442 22.7432 12.2836L22.6263 12.2996L14.4334 12.8305C14.1609 12.8574 13.8895 12.7695 13.687 12.5888C13.518 12.438 13.4101 12.2347 13.3796 12.0156L12.8297 3.8347C12.8201 3.80704 12.8201 3.77706 12.8297 3.74939C12.8372 3.52388 12.9365 3.31073 13.1053 3.15755C13.2741 3.00436 13.4985 2.92392 13.7282 2.93418C18.5921 3.05792 22.68 6.55548 23.4668 11.2664Z" fill="white"/>
</g>
</svg>
