<svg width="21" height="20" viewBox="0 0 21 20" fill="none" xmlns="http://www.w3.org/2000/svg">
<path d="M10.4816 1C8.7866 1.00135 7.12646 1.48132 5.69226 2.38464H15.2578C13.8273 1.48369 12.1721 1.00382 10.4816 1Z" fill="#B22234"/>
<path d="M5.69224 2.38466C5.07441 2.77577 4.50655 3.24072 4.00122 3.76923H16.9725C16.4598 3.2392 15.8839 2.77419 15.2577 2.38466H5.69224Z" fill="white"/>
<path d="M4.00129 3.76923C3.59281 4.19391 3.22701 4.65768 2.90918 5.15387H18.0644C17.7466 4.6577 17.3809 4.19392 16.9726 3.76923H4.00129Z" fill="#B22234"/>
<path d="M2.90913 5.15385C2.62506 5.5932 2.37985 6.05648 2.17627 6.53842H18.7803C18.5821 6.05706 18.3426 5.5938 18.0643 5.15385H2.90913Z" fill="white"/>
<path d="M2.17632 6.53842C1.99204 6.98731 1.84437 7.45037 1.73474 7.92307H19.2278C19.1163 7.4502 18.9666 6.98713 18.7803 6.53842H2.17632Z" fill="#B22234"/>
<path d="M1.73472 7.92303C1.626 8.3782 1.55295 8.84115 1.51624 9.30768H19.4523C19.4136 8.84099 19.3385 8.37804 19.2278 7.92303H1.73472Z" fill="white"/>
<path d="M1.51621 9.3078C1.49578 9.53803 1.48422 9.76896 1.48157 10.0001C1.48244 10.2311 1.49222 10.4621 1.51086 10.6924H19.4469C19.4674 10.4621 19.4789 10.2312 19.4816 10.0001C19.4807 9.76903 19.4709 9.5381 19.4523 9.3078H1.51621Z" fill="#B22234"/>
<path d="M1.51086 10.6922C1.54956 11.1589 1.62461 11.6218 1.73535 12.0768H19.2284C19.3372 11.6217 19.4102 11.1587 19.4469 10.6922H1.51086Z" fill="white"/>
<path d="M1.73535 12.077C1.8469 12.5498 1.99656 13.0129 2.18286 13.4616H18.7869C18.9711 13.0127 19.1188 12.5496 19.2284 12.077H1.73535Z" fill="#B22234"/>
<path d="M2.18286 13.4616C2.38102 13.9429 2.62056 14.4062 2.8988 14.8461H18.054C18.3381 14.4068 18.5833 13.9435 18.7869 13.4616H2.18286Z" fill="white"/>
<path d="M2.8988 14.8461C3.21654 15.3423 3.58224 15.8061 3.99062 16.2308H16.9619C17.3704 15.8061 17.7362 15.3423 18.054 14.8461H2.8988Z" fill="#B22234"/>
<path d="M3.9906 16.2308C4.5033 16.7608 5.0792 17.2258 5.70535 17.6153H15.2709C15.8887 17.2242 16.4565 16.7593 16.9619 16.2308H3.9906Z" fill="white"/>
<path d="M5.70544 17.6153C7.13587 18.5163 8.79113 18.9962 10.4816 19C12.1766 18.9986 13.8367 18.5187 15.2709 17.6153H5.70544Z" fill="#B22234"/>
<path d="M10.4816 1C8.09462 1 5.80543 1.94821 4.11761 3.63604C2.42978 5.32387 1.48157 7.61305 1.48157 10C1.48274 10.2378 1.49335 10.4755 1.51335 10.7125H11.1941V1.03567C10.9571 1.01437 10.7194 1.00247 10.4816 1Z" fill="#3C3B6E"/>
<path d="M7.26073 1.60677C7.14082 1.65054 7.02184 1.69687 6.9039 1.74571L7.03537 1.84561L6.94645 2.13294L7.182 1.95708L7.42443 2.14136L7.33339 1.844L7.57582 1.66302H7.27794L7.26073 1.60677ZM8.78737 1.36093L8.69386 1.66299H8.39701L8.6373 1.84563L8.54836 2.13292L8.78389 1.95708L9.02634 2.14135L8.9353 1.84403L9.17772 1.66299H8.87987L8.78737 1.36093ZM10.3893 1.36093L10.2958 1.66299H9.99892L10.2392 1.84563L10.1503 2.13292L10.3858 1.95708L10.6283 2.14135L10.5372 1.84403L10.7796 1.66299H10.4818L10.3893 1.36093ZM4.94511 2.9178C4.90279 2.94936 4.86074 2.9813 4.81898 3.0136L5.02157 3.16763L4.94511 2.9178ZM6.3845 2.38719L6.29099 2.68926H5.99415L6.23443 2.87189L6.1455 3.15918L6.38103 2.98334L6.62348 3.16761L6.53244 2.8703L6.77486 2.68926H6.47701L6.3845 2.38719ZM7.98641 2.38719L7.8929 2.68926H7.59606L7.83634 2.87189L7.74741 3.15918L7.98294 2.98334L8.22539 3.16761L8.13435 2.8703L8.37677 2.68926H8.07892L7.98641 2.38719ZM9.58832 2.38719L9.49481 2.68926H9.19797L9.43825 2.87189L9.34931 3.15918L9.58484 2.98334L9.8273 3.16761L9.73625 2.8703L9.97868 2.68926H9.68082L9.58832 2.38719ZM4.06671 3.69131C3.97794 3.78528 3.8912 3.88115 3.80656 3.97886L3.74262 4.1854L3.97816 4.00955L4.2206 4.19383L4.12956 3.89654L4.37199 3.71548H4.07411L4.06671 3.69131ZM5.58355 3.41342L5.49004 3.71548H5.1932L5.43348 3.89811L5.34454 4.18541L5.58007 4.00956L5.82253 4.19383L5.73148 3.89652L5.97391 3.71548H5.67605L5.58355 3.41342ZM7.18546 3.41342L7.09195 3.71548H6.7951L7.03539 3.89811L6.94645 4.18541L7.18198 4.00956L7.42443 4.19383L7.33339 3.89652L7.57581 3.71548H7.27796L7.18546 3.41342ZM8.78737 3.41342L8.69386 3.71548H8.39701L8.6373 3.89811L8.54836 4.18541L8.78389 4.00956L9.02634 4.19383L8.9353 3.89652L9.17772 3.71548H8.87987L8.78737 3.41342ZM10.3893 3.41342L10.2958 3.71548H9.99892L10.2392 3.89811L10.1503 4.18541L10.3858 4.00956L10.6283 4.19383L10.5372 3.89652L10.7796 3.71548H10.4818L10.3893 3.41342ZM3.24867 4.66162C3.16575 4.77214 3.08538 4.88454 3.00763 4.99876L2.94171 5.21167L3.17719 5.03582L3.41969 5.2201L3.32865 4.92281L3.57101 4.74175H3.27321L3.24867 4.66162ZM4.7826 4.43968L4.68908 4.74174H4.39224L4.63252 4.92438L4.54359 5.21167L4.77912 5.03582L5.02157 5.2201L4.93053 4.92278L5.17295 4.74174H4.8751L4.7826 4.43968ZM6.3845 4.43968L6.29099 4.74174H5.99415L6.23443 4.92438L6.1455 5.21167L6.38103 5.03582L6.62348 5.2201L6.53244 4.92278L6.77486 4.74174H6.47701L6.3845 4.43968ZM7.98641 4.43968L7.8929 4.74174H7.59606L7.83634 4.92438L7.74741 5.21167L7.98294 5.03582L8.22539 5.2201L8.13435 4.92278L8.37677 4.74174H8.07892L7.98641 4.43968ZM9.58832 4.43968L9.49481 4.74174H9.19797L9.43825 4.92438L9.34931 5.21167L9.58484 5.03582L9.8273 5.2201L9.73625 4.92278L9.97868 4.74174H9.68082L9.58832 4.43968ZM2.54672 5.76802C2.49293 5.86883 2.44106 5.97066 2.39115 6.07344L2.61872 6.24637L2.52768 5.94908L2.77011 5.76802H2.54672ZM3.98164 5.46594L3.88813 5.768H3.59129L3.83157 5.95064L3.74264 6.23793L3.97817 6.06209L4.22062 6.24636L4.12958 5.94904L4.372 5.768H4.07414L3.98164 5.46594ZM5.58355 5.46594L5.49004 5.768H5.1932L5.43348 5.95064L5.34454 6.23793L5.58007 6.06209L5.82253 6.24636L5.73148 5.94904L5.97391 5.768H5.67605L5.58355 5.46594ZM7.18546 5.46594L7.09195 5.768H6.7951L7.03539 5.95064L6.94645 6.23793L7.18198 6.06209L7.42443 6.24636L7.33339 5.94904L7.57581 5.768H7.27796L7.18546 5.46594ZM8.78737 5.46594L8.69386 5.768H8.39701L8.6373 5.95064L8.54836 6.23793L8.78389 6.06209L9.02634 6.24636L8.9353 5.94904L9.17772 5.768H8.87987L8.78737 5.46594ZM10.3893 5.46594L10.2958 5.768H9.99892L10.2392 5.95064L10.1503 6.23793L10.3858 6.06209L10.6283 6.24636L10.5372 5.94904L10.7796 5.768H10.4818L10.3893 5.46594ZM3.18069 6.49217L3.08718 6.79423H2.79033L3.03062 6.97686L2.94168 7.26415L3.17721 7.08831L3.41967 7.27258L3.32862 6.97527L3.57105 6.79423H3.27319L3.18069 6.49217ZM4.7826 6.49217L4.68908 6.79423H4.39224L4.63252 6.97686L4.54359 7.26415L4.77912 7.08831L5.02157 7.27258L4.93053 6.97527L5.17295 6.79423H4.8751L4.7826 6.49217ZM6.3845 6.49217L6.29099 6.79423H5.99415L6.23443 6.97686L6.1455 7.26415L6.38103 7.08831L6.62348 7.27258L6.53244 6.97527L6.77486 6.79423H6.47701L6.3845 6.49217ZM7.98641 6.49217L7.8929 6.79423H7.59606L7.83634 6.97686L7.74741 7.26415L7.98294 7.08831L8.22539 7.27258L8.13435 6.97527L8.37677 6.79423H8.07892L7.98641 6.49217ZM9.58832 6.49217L9.49481 6.79423H9.19797L9.43825 6.97686L9.34931 7.26415L9.58484 7.08831L9.8273 7.27258L9.73625 6.97527L9.97868 6.79423H9.68082L9.58832 6.49217ZM2.37974 7.51843L2.28622 7.82049H1.98938L2.22967 8.00313L2.14073 8.29042L2.37626 8.11457L2.61871 8.29885L2.52767 8.00153L2.77009 7.82049H2.47224L2.37974 7.51843ZM3.98164 7.51843L3.88813 7.82049H3.59129L3.83157 8.00313L3.74264 8.29042L3.97817 8.11457L4.22062 8.29885L4.12958 8.00153L4.372 7.82049H4.07414L3.98164 7.51843ZM5.58355 7.51843L5.49004 7.82049H5.1932L5.43348 8.00313L5.34454 8.29042L5.58007 8.11457L5.82253 8.29885L5.73148 8.00153L5.97391 7.82049H5.67605L5.58355 7.51843ZM7.18546 7.51843L7.09195 7.82049H6.7951L7.03539 8.00313L6.94645 8.29042L7.18198 8.11457L7.42443 8.29885L7.33339 8.00153L7.57581 7.82049H7.27796L7.18546 7.51843ZM8.78737 7.51843L8.69386 7.82049H8.39701L8.6373 8.00313L8.54836 8.29042L8.78389 8.11457L9.02634 8.29885L8.9353 8.00153L9.17772 7.82049H8.87987L8.78737 7.51843ZM10.3893 7.51843L10.2958 7.82049H9.99892L10.2392 8.00313L10.1503 8.29042L10.3858 8.11457L10.6283 8.29885L10.5372 8.00153L10.7796 7.82049H10.4818L10.3893 7.51843ZM3.18069 8.54469L3.08718 8.84675H2.79033L3.03062 9.02939L2.94168 9.31668L3.17721 9.14084L3.41967 9.32511L3.32862 9.02779L3.57105 8.84675H3.27319L3.18069 8.54469ZM4.7826 8.54469L4.68908 8.84675H4.39224L4.63252 9.02939L4.54359 9.31668L4.77912 9.14084L5.02157 9.32511L4.93053 9.02779L5.17295 8.84675H4.8751L4.7826 8.54469ZM6.3845 8.54469L6.29099 8.84675H5.99415L6.23443 9.02939L6.1455 9.31668L6.38103 9.14084L6.62348 9.32511L6.53244 9.02779L6.77486 8.84675H6.47701L6.3845 8.54469ZM7.98641 8.54469L7.8929 8.84675H7.59606L7.83634 9.02939L7.74741 9.31668L7.98294 9.14084L8.22539 9.32511L8.13435 9.02779L8.37677 8.84675H8.07892L7.98641 8.54469ZM9.58832 8.54469L9.49481 8.84675H9.19797L9.43825 9.02939L9.34931 9.31668L9.58484 9.14084L9.8273 9.32511L9.73625 9.02779L9.97868 8.84675H9.68082L9.58832 8.54469ZM2.37974 9.57091L2.28622 9.87298H1.98938L2.22967 10.0556L2.14073 10.3429L2.37626 10.1671L2.61871 10.3513L2.52767 10.054L2.77009 9.87298H2.47224L2.37974 9.57091ZM3.98164 9.57091L3.88813 9.87298H3.59129L3.83157 10.0556L3.74264 10.3429L3.97817 10.1671L4.22062 10.3513L4.12958 10.054L4.372 9.87298H4.07414L3.98164 9.57091ZM5.58355 9.57091L5.49004 9.87298H5.1932L5.43348 10.0556L5.34454 10.3429L5.58007 10.1671L5.82253 10.3513L5.73148 10.054L5.97391 9.87298H5.67605L5.58355 9.57091ZM7.18546 9.57091L7.09195 9.87298H6.7951L7.03539 10.0556L6.94645 10.3429L7.18198 10.1671L7.42443 10.3513L7.33339 10.054L7.57581 9.87298H7.27796L7.18546 9.57091ZM8.78737 9.57091L8.69386 9.87298H8.39701L8.6373 10.0556L8.54836 10.3429L8.78389 10.1671L9.02634 10.3513L8.9353 10.054L9.17772 9.87298H8.87987L8.78737 9.57091ZM10.3893 9.57091L10.2958 9.87298H9.99892L10.2392 10.0556L10.1503 10.3429L10.3858 10.1671L10.6283 10.3513L10.5372 10.054L10.7796 9.87298H10.4818L10.3893 9.57091Z" fill="white"/>
</svg>
