<svg width="26" height="27" viewBox="0 0 26 27" fill="none" xmlns="http://www.w3.org/2000/svg">
<path d="M22.1309 20.3688L18.0693 16.3072C18.9085 15.0424 19.3997 13.528 19.3997 11.9C19.3997 7.48879 15.8109 3.89999 11.3997 3.89999C6.98852 3.89999 3.39972 7.48879 3.39972 11.9C3.39972 16.3112 6.98852 19.9 11.3997 19.9C13.0277 19.9 14.5421 19.4088 15.8069 18.5696L19.8685 22.6312C20.4925 23.256 21.5069 23.256 22.1309 22.6312C22.7557 22.0064 22.7557 20.9936 22.1309 20.3688ZM5.79972 11.9C5.79972 8.81199 8.31172 6.29999 11.3997 6.29999C14.4877 6.29999 16.9997 8.81199 16.9997 11.9C16.9997 14.988 14.4877 17.5 11.3997 17.5C8.31172 17.5 5.79972 14.988 5.79972 11.9Z" fill="#5D5FEF"/>
</svg>
