<svg width="40" height="39" viewBox="0 0 40 39" fill="none" xmlns="http://www.w3.org/2000/svg">
<rect x="0.505859" y="0.600006" width="39.3897" height="38.4" rx="6.4" fill="#FFFAF1"/>
<path d="M28.1384 25.0427C27.6109 24.5842 27.149 24.0586 26.7653 23.48C26.3463 22.6814 26.0952 21.8092 26.0267 20.9147V18.28C26.0303 16.875 25.5075 15.5171 24.5566 14.4613C23.6056 13.4056 22.2919 12.7247 20.8623 12.5467V11.8587C20.8623 11.6698 20.7853 11.4887 20.6484 11.3552C20.5114 11.2217 20.3256 11.1467 20.1319 11.1467C19.9382 11.1467 19.7525 11.2217 19.6155 11.3552C19.4785 11.4887 19.4016 11.6698 19.4016 11.8587V12.5573C17.9848 12.7482 16.687 13.4332 15.7485 14.4854C14.81 15.5376 14.2944 16.8857 14.2973 18.28V20.9147C14.2288 21.8092 13.9777 22.6814 13.5588 23.48C13.1818 24.0573 12.7273 24.5828 12.2075 25.0427C12.1491 25.0926 12.1024 25.1542 12.0703 25.2231C12.0382 25.2921 12.0216 25.3669 12.0215 25.4427V26.168C12.0215 26.3095 12.0791 26.4451 12.1817 26.5451C12.2843 26.6451 12.4235 26.7013 12.5686 26.7013H27.7773C27.9224 26.7013 28.0616 26.6451 28.1642 26.5451C28.2668 26.4451 28.3244 26.3095 28.3244 26.168V25.4427C28.3243 25.3669 28.3077 25.2921 28.2756 25.2231C28.2435 25.1542 28.1968 25.0926 28.1384 25.0427ZM13.1594 25.6347C13.6684 25.1553 14.1166 24.6181 14.4943 24.0347C15.022 23.0701 15.3299 22.0059 15.397 20.9147V18.28C15.3753 17.655 15.4828 17.032 15.7132 16.4484C15.9436 15.8647 16.2921 15.3322 16.738 14.8825C17.1839 14.4329 17.718 14.0753 18.3086 13.8311C18.8992 13.5869 19.5342 13.461 20.1757 13.461C20.8172 13.461 21.4522 13.5869 22.0428 13.8311C22.6334 14.0753 23.1675 14.4329 23.6134 14.8825C24.0593 15.3322 24.4078 15.8647 24.6382 16.4484C24.8686 17.032 24.9761 17.655 24.9544 18.28V20.9147C25.0215 22.0059 25.3294 23.0701 25.8571 24.0347C26.2348 24.6181 26.683 25.1553 27.192 25.6347H13.1594Z" fill="#FFA412"/>
<path d="M20.2001 28.4826C20.5447 28.4749 20.8754 28.3486 21.1337 28.126C21.392 27.9035 21.5613 27.5991 21.6115 27.2666H18.7339C18.7856 27.6081 18.9627 27.9197 19.2324 28.1434C19.5021 28.367 19.846 28.4876 20.2001 28.4826Z" fill="#FFA412"/>
</svg>
