<svg width="46" height="46" viewBox="0 0 46 46" fill="none" xmlns="http://www.w3.org/2000/svg">
<path opacity="0.21" fill-rule="evenodd" clip-rule="evenodd" d="M0 23.18V28.5C0 38.1539 7.82607 45.98 17.48 45.98H22.8H28.12C37.7739 45.98 45.6 38.1539 45.6 28.5V23.18V17.86C45.6 8.20607 37.7739 0.380005 28.12 0.380005H22.8H17.48C7.82606 0.380005 0 8.20608 0 17.86V23.18Z" fill="#8280FF"/>
<path fill-rule="evenodd" clip-rule="evenodd" d="M28.7019 10.9895V35.875C28.7019 37.2765 27.4434 38.3424 26.061 38.112L13.0847 35.9494C11.6266 35.7063 10.5579 34.4448 10.5579 32.9665V13.8979C10.5579 12.4197 11.6266 11.1581 13.0847 10.9151L26.061 8.75237C27.4434 8.52197 28.7019 9.58803 28.7019 10.9895ZM31.7259 12.8483C33.3201 12.8483 34.6261 14.0819 34.7416 15.6466L34.7499 15.8723V30.9923C34.7499 32.5865 33.5163 33.8926 31.9515 34.008L31.7259 34.0163H30.2139V12.8483H31.7259ZM21.8979 21.1643C20.6453 21.1643 19.6299 22.1798 19.6299 23.4323C19.6299 24.6849 20.6453 25.7003 21.8979 25.7003C23.1504 25.7003 24.1659 24.6849 24.1659 23.4323C24.1659 22.1798 23.1504 21.1643 21.8979 21.1643Z" fill="#95BCE0"/>
</svg>
