<svg width="27" height="30" viewBox="0 0 27 30" fill="none" xmlns="http://www.w3.org/2000/svg">
<path d="M13.3329 25.752L1.04504 25.752" stroke="#4F4B48" stroke-width="1.53599" stroke-linecap="round"/>
<path d="M25.6208 4.24799L21.0128 4.24799" stroke="#4F4B48" stroke-width="1.53599" stroke-linecap="round"/>
<path d="M25.6207 25.752H19.4768" stroke="#4F4B48" stroke-width="1.53599" stroke-linecap="round"/>
<path d="M14.8689 4.24799L1.04504 4.24799" stroke="#4F4B48" stroke-width="1.53599" stroke-linecap="round"/>
<path d="M5.65299 15H1.04504" stroke="#4F4B48" stroke-width="1.53599" stroke-linecap="round"/>
<path d="M25.621 15L11.7971 15" stroke="#4F4B48" stroke-width="1.53599" stroke-linecap="round"/>
<path d="M19.4769 25.752C19.4769 24.0554 18.1016 22.68 16.405 22.68C14.7084 22.68 13.333 24.0554 13.333 25.752C13.333 27.4486 14.7084 28.824 16.405 28.824C18.1016 28.824 19.4769 27.4486 19.4769 25.752Z" stroke="#4F4B48" stroke-width="1.53599" stroke-linecap="round"/>
<path d="M11.7969 15C11.7969 13.3034 10.4215 11.928 8.72492 11.928C7.02832 11.928 5.65295 13.3034 5.65295 15C5.65295 16.6966 7.02832 18.072 8.72492 18.072C10.4215 18.072 11.7969 16.6966 11.7969 15Z" stroke="#4F4B48" stroke-width="1.53599" stroke-linecap="round"/>
<path d="M21.0131 4.24801C21.0131 2.55139 19.6377 1.17601 17.9411 1.17601C16.2445 1.17601 14.8691 2.55139 14.8691 4.24801C14.8691 5.94463 16.2445 7.32001 17.9411 7.32001C19.6377 7.32001 21.0131 5.94463 21.0131 4.24801Z" stroke="#4F4B48" stroke-width="1.53599" stroke-linecap="round"/>
</svg>
