<svg width="26" height="26" viewBox="0 0 26 26" fill="none" xmlns="http://www.w3.org/2000/svg">
<path d="M12.8 8.7335C13.9316 8.7335 15.0169 9.18302 15.817 9.98317C16.6172 10.7833 17.0667 11.8686 17.0667 13.0002C17.0667 14.1318 16.6172 15.217 15.817 16.0172C15.0169 16.8173 13.9316 17.2668 12.8 17.2668C11.6684 17.2668 10.5832 16.8173 9.78303 16.0172C8.98288 15.217 8.53335 14.1318 8.53335 13.0002C8.53335 11.8686 8.98288 10.7833 9.78303 9.98317C10.5832 9.18302 11.6684 8.7335 12.8 8.7335ZM12.8 10.8668C12.2342 10.8668 11.6916 11.0916 11.2915 11.4917C10.8914 11.8917 10.6667 12.4344 10.6667 13.0002C10.6667 13.566 10.8914 14.1086 11.2915 14.5087C11.6916 14.9087 12.2342 15.1335 12.8 15.1335C13.3658 15.1335 13.9084 14.9087 14.3085 14.5087C14.7086 14.1086 14.9334 13.566 14.9334 13.0002C14.9334 12.4344 14.7086 11.8917 14.3085 11.4917C13.9084 11.0916 13.3658 10.8668 12.8 10.8668ZM10.6667 23.6668C10.4 23.6668 10.176 23.4748 10.1334 23.2188L9.73869 20.3922C9.06669 20.1255 8.49069 19.7628 7.93602 19.3362L5.28002 20.4135C5.04535 20.4988 4.75736 20.4135 4.62936 20.1788L2.49602 16.4882C2.43074 16.3783 2.40772 16.2483 2.43128 16.1227C2.45484 15.997 2.52336 15.8843 2.62402 15.8055L4.87469 14.0348L4.80002 13.0002L4.87469 11.9335L2.62402 10.1948C2.52336 10.116 2.45484 10.0033 2.43128 9.87764C2.40772 9.75199 2.43074 9.62207 2.49602 9.51216L4.62936 5.8215C4.75736 5.58683 5.04535 5.49083 5.28002 5.58683L7.93602 6.6535C8.49069 6.2375 9.06669 5.87483 9.73869 5.60816L10.1334 2.7815C10.176 2.5255 10.4 2.3335 10.6667 2.3335H14.9334C15.2 2.3335 15.424 2.5255 15.4667 2.7815L15.8614 5.60816C16.5334 5.87483 17.1094 6.2375 17.664 6.6535L20.32 5.58683C20.5547 5.49083 20.8427 5.58683 20.9707 5.8215L23.104 9.51216C23.2427 9.74683 23.1787 10.0348 22.976 10.1948L20.7254 11.9335L20.8 13.0002L20.7254 14.0668L22.976 15.8055C23.1787 15.9655 23.2427 16.2535 23.104 16.4882L20.9707 20.1788C20.8427 20.4135 20.5547 20.5095 20.32 20.4135L17.664 19.3468C17.1094 19.7628 16.5334 20.1255 15.8614 20.3922L15.4667 23.2188C15.424 23.4748 15.2 23.6668 14.9334 23.6668H10.6667ZM12 4.46683L11.6054 7.25083C10.3254 7.5175 9.19469 8.20016 8.37335 9.1495L5.80269 8.04016L5.00269 9.42683L7.25336 11.0802C6.82669 12.3246 6.82669 13.6757 7.25336 14.9202L4.99202 16.5842L5.79202 17.9708L8.38402 16.8615C9.20535 17.8002 10.3254 18.4828 11.5947 18.7388L11.9894 21.5335H13.6107L14.0054 18.7495C15.2747 18.4828 16.3947 17.8002 17.216 16.8615L19.808 17.9708L20.608 16.5842L18.3467 14.9308C18.7734 13.6828 18.7734 12.3282 18.3467 11.0802L20.5974 9.42683L19.7974 8.04016L17.2267 9.1495C16.3885 8.17917 15.2516 7.51502 13.9947 7.2615L13.6 4.46683H12Z" fill="#737791"/>
</svg>
