<svg width="26" height="27" viewBox="0 0 26 27" fill="none" xmlns="http://www.w3.org/2000/svg">
<path fill-rule="evenodd" clip-rule="evenodd" d="M17.4198 18.5607L21.0697 14.3021C21.244 14.1032 21.3332 13.8522 21.3333 13.5999C21.3334 13.4272 21.2918 13.254 21.2073 13.0964C21.1697 13.0261 21.1238 12.9594 21.0697 12.8977L17.4198 8.63902C17.0364 8.19172 16.3631 8.13988 15.9158 8.52324C15.4685 8.9066 15.4166 9.57998 15.8 10.0273L17.9476 12.5331L9.68667 12.5331C9.09757 12.5331 8.62001 13.0107 8.62001 13.5998C8.62001 14.1889 9.09757 14.6665 9.68667 14.6665L17.9477 14.6665L15.8 17.1725C15.4166 17.6198 15.4685 18.2932 15.9158 18.6765C16.3631 19.0599 17.0364 19.0081 17.4198 18.5607ZM10.6666 7.1998C11.2557 7.1998 11.7333 7.67736 11.7333 8.26647L11.7333 9.86647C11.7333 10.4556 12.2109 10.9331 12.8 10.9331C13.3891 10.9331 13.8666 10.4556 13.8666 9.86647L13.8666 8.26647C13.8666 6.49916 12.434 5.06647 10.6666 5.06647L7.46665 5.06647C5.69933 5.06647 4.26665 6.49916 4.26665 8.26647L4.26664 18.9331C4.26664 20.7004 5.69933 22.1331 7.46664 22.1331L10.6666 22.1331C12.434 22.1331 13.8666 20.7004 13.8666 18.9331L13.8666 17.3331C13.8666 16.744 13.3891 16.2665 12.8 16.2665C12.2109 16.2665 11.7333 16.744 11.7333 17.3331L11.7333 18.9331C11.7333 19.5222 11.2557 19.9998 10.6666 19.9998L7.46664 19.9998C6.87754 19.9998 6.39998 19.5222 6.39998 18.9331L6.39998 8.26647C6.39998 7.67736 6.87754 7.1998 7.46665 7.1998L10.6666 7.1998Z" fill="#737791"/>
</svg>
