<svg width="22" height="20" viewBox="0 0 22 20" fill="none" xmlns="http://www.w3.org/2000/svg">
<path d="M10.78 0.560028C10.3759 0.560028 9.97582 0.639615 9.60251 0.794245C9.22921 0.948874 8.89001 1.17552 8.60429 1.46124C8.31857 1.74696 8.09193 2.08615 7.9373 2.45946C7.78267 2.83277 7.70308 3.23288 7.70308 3.63695C7.70308 4.04101 7.78267 4.44112 7.9373 4.81443C8.09193 5.18774 8.31857 5.52694 8.60429 5.81266C8.89001 6.09838 9.22921 6.32502 9.60251 6.47965C9.97582 6.63428 10.3759 6.71387 10.78 6.71387C11.5961 6.71387 12.3787 6.38969 12.9557 5.81266C13.5327 5.23562 13.8569 4.453 13.8569 3.63695C13.8569 2.8209 13.5327 2.03827 12.9557 1.46124C12.3787 0.884202 11.5961 0.560028 10.78 0.560028ZM17.71 2.09695C17.0974 2.09695 16.5098 2.34032 16.0766 2.77353C15.6434 3.20674 15.4 3.7943 15.4 4.40695C15.4 5.0196 15.6434 5.60716 16.0766 6.04036C16.5098 6.47357 17.0974 6.71695 17.71 6.71695C18.3227 6.71695 18.9102 6.47357 19.3434 6.04036C19.7766 5.60716 20.02 5.0196 20.02 4.40695C20.02 3.7943 19.7766 3.20674 19.3434 2.77353C18.9102 2.34032 18.3227 2.09695 17.71 2.09695ZM3.85 2.09695C3.23735 2.09695 2.64979 2.34032 2.21658 2.77353C1.78337 3.20674 1.54 3.7943 1.54 4.40695C1.54 5.0196 1.78337 5.60716 2.21658 6.04036C2.64979 6.47357 3.23735 6.71695 3.85 6.71695C4.46265 6.71695 5.05021 6.47357 5.48342 6.04036C5.91663 5.60716 6.16 5.0196 6.16 4.40695C6.16 3.7943 5.91663 3.20674 5.48342 2.77353C5.05021 2.34032 4.46265 2.09695 3.85 2.09695ZM6.16 9.78617C6.16285 9.37961 6.32635 8.99066 6.61485 8.70418C6.90335 8.41771 7.29343 8.25694 7.7 8.25695H13.86C14.2684 8.25695 14.6601 8.4192 14.9489 8.708C15.2378 8.99681 15.4 9.38851 15.4 9.79695V14.4169C15.4004 14.9017 15.3245 15.3834 15.1752 15.8445C14.8342 16.8897 14.1317 17.7791 13.194 18.353C12.2562 18.9269 11.1446 19.1477 10.0587 18.9758C8.97282 18.8038 7.98379 18.2504 7.26923 17.4148C6.55468 16.5793 6.16139 15.5164 6.16 14.4169V9.78617ZM4.62 9.79695C4.62 9.23485 4.76938 8.70971 5.03272 8.25695H1.54C1.13157 8.25695 0.739862 8.4192 0.451056 8.708C0.16225 8.99681 2.13156e-07 9.38851 2.13156e-07 9.79695V13.6469C-0.000209514 14.2773 0.154348 14.898 0.4501 15.4547C0.745852 16.0113 1.17375 16.4868 1.69622 16.8394C2.21869 17.192 2.81975 17.411 3.44661 17.477C4.07347 17.5431 4.70696 17.4542 5.29144 17.2182C4.84914 16.3502 4.61903 15.3896 4.62 14.4154V9.79695ZM16.94 9.79695V14.4169C16.94 15.4256 16.6982 16.3774 16.2686 17.2182C16.853 17.4542 17.4865 17.5431 18.1134 17.477C18.7403 17.411 19.3413 17.192 19.8638 16.8394C20.3862 16.4868 20.8141 16.0113 21.1099 15.4547C21.4057 14.898 21.5602 14.2773 21.56 13.6469V9.79695C21.56 9.38851 21.3978 8.99681 21.1089 8.708C20.8201 8.4192 20.4284 8.25695 20.02 8.25695H16.5273C16.7891 8.70971 16.94 9.23485 16.94 9.79695Z" fill="#737791"/>
</svg>
