<svg width="26" height="26" viewBox="0 0 26 26" fill="none" xmlns="http://www.w3.org/2000/svg">
<path d="M14 4.80005C15.0609 4.80005 16.0783 5.22148 16.8284 5.97162C17.5786 6.72177 18 7.73918 18 8.80005C18 9.86091 17.5786 10.8783 16.8284 11.6285C16.0783 12.3786 15.0609 12.8 14 12.8C12.9391 12.8 11.9217 12.3786 11.1716 11.6285C10.4214 10.8783 10 9.86091 10 8.80005C10 7.73918 10.4214 6.72177 11.1716 5.97162C11.9217 5.22148 12.9391 4.80005 14 4.80005ZM14 14.8C18.42 14.8 22 16.59 22 18.8V20.8H6V18.8C6 16.59 9.58 14.8 14 14.8Z" fill="#737791"/>
</svg>
